<?xml version="1.0" encoding="UTF-8"?>
<svg version="1.1" xmlns="http://www.w3.org/2000/svg" width="207" height="189">
<path d="M0 0 C1.25135239 0.53065819 1.25135239 0.53065819 2.52798462 1.07203674 C5.26586357 2.23585035 7.99603608 3.41670832 10.7265625 4.59765625 C12.62962893 5.41021252 14.53328363 6.22139227 16.4375 7.03125 C19.39389219 8.2887783 22.34985603 9.54722221 25.30389404 10.81027222 C32.25065589 13.77877711 39.21825743 16.69268333 46.203125 19.5703125 C47.14755463 19.95960434 48.09198425 20.34889618 49.06503296 20.74998474 C52.72762441 22.25864716 56.39079659 23.76587548 60.05535889 25.26974487 C62.57195294 26.30326372 65.08689406 27.34071287 67.6015625 28.37890625 C68.34644928 28.68333145 69.09133606 28.98775665 69.85879517 29.30140686 C72.91067556 30.56407015 75.59330918 31.8213207 78.3515625 33.66015625 C78.25732422 35.96289063 78.25732422 35.96289063 77.3515625 38.66015625 C74.56689453 40.34179687 74.56689453 40.34179687 70.859375 41.81640625 C70.19880096 42.08602173 69.53822693 42.35563721 68.8576355 42.63342285 C66.73756998 43.49429926 64.60794652 44.32775005 62.4765625 45.16015625 C60.38361104 45.99840467 58.29295582 46.8421767 56.2026062 47.68688965 C54.90330875 48.20963121 53.60213369 48.7277448 52.2986145 49.23986816 C46.53478114 51.51847695 41.0225762 54.08242275 35.3515625 56.66015625 C49.5415625 62.60015625 63.7315625 68.54015625 78.3515625 74.66015625 C78.3515625 86.21015625 78.3515625 97.76015625 78.3515625 109.66015625 C69.1115625 113.62015625 59.8715625 117.58015625 50.3515625 121.66015625 C57.44950135 125.20912568 64.28582807 128.33581413 71.70898438 130.9765625 C73.88671875 131.81640625 73.88671875 131.81640625 77.3515625 133.66015625 C78.06811523 136.27539063 78.06811523 136.27539063 78.3515625 138.66015625 C69.85197545 143.14651242 61.04017287 146.81604908 52.1640625 150.47265625 C49.78624175 151.45350458 47.40846002 152.43444739 45.03071594 153.41548157 C43.37394895 154.0988799 41.71695312 154.78172372 40.05973816 155.46403503 C34.81422021 157.6279772 29.5864924 159.83004806 24.36915588 162.06105042 C20.86346748 163.55768107 17.35132742 165.03878084 13.83822632 166.51791382 C12.15434538 167.23115072 10.47329335 167.95110796 8.7953186 168.6781311 C6.43467606 169.69963325 4.06470578 170.6958292 1.69140625 171.6875 C1.00934113 171.98987579 0.327276 172.29225159 -0.37545776 172.60379028 C-8.69452864 176.01186198 -16.69812264 175.568909 -24.93737793 172.17196655 C-26.18073914 171.6247142 -26.18073914 171.6247142 -27.44921875 171.06640625 C-28.35281128 170.68779449 -29.25640381 170.30918274 -30.18737793 169.9190979 C-33.12029486 168.68495124 -36.04050136 167.42351998 -38.9609375 166.16015625 C-40.99435429 165.29510849 -43.02846165 164.43168231 -45.06323242 163.56982422 C-48.1772482 162.24937951 -51.29007414 160.92646925 -54.39936829 159.59494019 C-61.26458783 156.65565661 -68.16079327 153.806536 -75.0859375 151.01171875 C-77.70984986 149.94361509 -80.33294856 148.87354401 -82.95565796 147.80249023 C-84.62071305 147.12635126 -86.288221 146.45622035 -87.9581604 145.79223633 C-90.26502713 144.87282387 -92.56079421 143.92981932 -94.85546875 142.98046875 C-95.87549988 142.58464096 -95.87549988 142.58464096 -96.9161377 142.18081665 C-98.77661133 141.39501953 -98.77661133 141.39501953 -101.6484375 139.66015625 C-102.57299805 136.95263672 -102.57299805 136.95263672 -102.6484375 134.66015625 C-95.70787878 130.9596618 -88.56830692 127.9072108 -81.27563477 124.98413086 C-77.6997971 123.75513019 -77.6997971 123.75513019 -74.6484375 121.66015625 C-83.8884375 117.70015625 -93.1284375 113.74015625 -102.6484375 109.66015625 C-102.6484375 98.11015625 -102.6484375 86.56015625 -102.6484375 74.66015625 C-97.00721031 72.2563256 -91.36569249 69.85320313 -85.72338867 67.4519043 C-83.80361343 66.63461603 -81.88401602 65.81690994 -79.96459961 64.9987793 C-77.20733419 63.82360983 -74.44943497 62.64993926 -71.69140625 61.4765625 C-70.40220528 60.92652306 -70.40220528 60.92652306 -69.08695984 60.3653717 C-68.28635635 60.02509445 -67.48575287 59.6848172 -66.66088867 59.33422852 C-65.9569548 59.03444595 -65.25302094 58.73466339 -64.52775574 58.42579651 C-62.92593684 57.77321037 -61.28932848 57.20711991 -59.6484375 56.66015625 C-66.43193038 53.42845201 -73.23229679 50.36547803 -80.2265625 47.625 C-81.50130616 47.12045302 -82.77604574 46.6158957 -84.05078125 46.11132812 C-85.99602905 45.34270955 -87.94291204 44.58067812 -89.89697266 43.8347168 C-91.82691761 43.09518083 -93.74564206 42.33135011 -95.6640625 41.5625 C-96.79102539 41.12413818 -97.91798828 40.68577637 -99.07910156 40.23413086 C-101.6484375 38.66015625 -101.6484375 38.66015625 -102.52246094 35.97875977 C-102.5640332 35.21362061 -102.60560547 34.44848145 -102.6484375 33.66015625 C-93.33135076 28.66576788 -83.54115085 24.7900964 -73.7734375 20.78515625 C-70.1114266 19.27998698 -66.45013183 17.77308286 -62.7890625 16.265625 C-61.86419037 15.88521561 -60.93931824 15.50480621 -59.98641968 15.11286926 C-53.70334674 12.52331546 -47.44425081 9.88167513 -41.1953125 7.2109375 C-38.75156521 6.17191842 -36.30744501 5.13378144 -33.86322021 4.09588623 C-32.3143545 3.43508804 -30.76731818 2.76998382 -29.222229 2.10040283 C-27.074648 1.17023551 -24.92104936 0.25556306 -22.765625 -0.65625 C-21.55503418 -1.17646729 -20.34444336 -1.69668457 -19.09716797 -2.23266602 C-11.77783624 -4.58245855 -6.72487757 -2.9508633 0 0 Z M-31.6484375 9.66015625 C-30.57529297 10.71589844 -30.57529297 10.71589844 -29.48046875 11.79296875 C-26.66143282 14.61896526 -23.96794942 17.53271302 -21.3359375 20.53515625 C-20.88154297 21.02628906 -20.42714844 21.51742187 -19.95898438 22.0234375 C-17.38775712 25.00064801 -16.6554314 26.5674638 -16.35546875 30.54296875 C-16.45214844 31.57164063 -16.54882812 32.6003125 -16.6484375 33.66015625 C-18.6284375 33.99015625 -20.6084375 34.32015625 -22.6484375 34.66015625 C-22.72191406 36.23216797 -22.72191406 36.23216797 -22.796875 37.8359375 C-22.87191893 39.21486979 -22.94746607 40.59377475 -23.0234375 41.97265625 C-23.054375 42.66294922 -23.0853125 43.35324219 -23.1171875 44.06445312 C-23.32968669 47.73006414 -23.56777611 49.53916417 -25.6484375 52.66015625 C-29.86193656 54.06465594 -33.80737913 54.33844091 -38.0234375 52.78515625 C-39.6484375 51.66015625 -39.6484375 51.66015625 -40.6484375 49.66015625 C-40.88016577 47.11400616 -41.06738279 44.586194 -41.2109375 42.03515625 C-41.25412109 41.32875 -41.29730469 40.62234375 -41.34179688 39.89453125 C-41.44788501 38.14997088 -41.54866639 36.40508928 -41.6484375 34.66015625 C-44.6184375 34.16515625 -44.6184375 34.16515625 -47.6484375 33.66015625 C-48.14220495 29.25552619 -47.98351602 26.58381023 -45.2421875 23.1328125 C-44.22825687 21.98061861 -43.19639214 20.84399346 -42.1484375 19.72265625 C-41.62378906 19.13419922 -41.09914062 18.54574219 -40.55859375 17.93945312 C-39.27053334 16.49916739 -37.96150933 15.07767697 -36.6484375 13.66015625 C-38.55629201 12.42449177 -38.55629201 12.42449177 -40.36471558 13.15164185 C-41.05244049 13.44078461 -41.74016541 13.72992737 -42.44873047 14.02783203 C-43.23069794 14.35212189 -44.01266541 14.67641174 -44.81832886 15.01052856 C-45.66718658 15.37185883 -46.51604431 15.73318909 -47.390625 16.10546875 C-48.26937286 16.47235809 -49.14812073 16.83924744 -50.05349731 17.21725464 C-52.87991994 18.39928936 -55.70167829 19.59203762 -58.5234375 20.78515625 C-60.38772166 21.56711989 -62.25230182 22.34837825 -64.1171875 23.12890625 C-67.69540237 24.62778838 -71.27190499 26.13062718 -74.84667969 27.63769531 C-80.44021566 29.99551979 -86.0424942 32.33198109 -91.6484375 34.66015625 C-91.6484375 35.32015625 -91.6484375 35.98015625 -91.6484375 36.66015625 C-90.59495117 37.09658447 -89.54146484 37.5330127 -88.45605469 37.98266602 C-86.13099362 38.94588286 -83.80602168 39.90931325 -81.48123169 40.8731842 C-76.93158158 42.7594131 -72.38098203 44.64329032 -67.82861328 46.52294922 C-58.57902937 50.34594699 -49.34779755 54.20339115 -40.15625 58.1640625 C-37.72238284 59.2053471 -35.28790537 60.24518878 -32.85314941 61.28439331 C-31.30781636 61.94821446 -29.76504133 62.61802446 -28.22497559 63.29397583 C-26.07801238 64.2358416 -23.92316658 65.15690101 -21.765625 66.07421875 C-19.94973877 66.8623999 -19.94973877 66.8623999 -18.09716797 67.66650391 C-10.76285845 69.77967393 -4.61946502 66.66844452 2.078125 63.828125 C3.01203064 63.43976471 3.94593628 63.05140442 4.90814209 62.65127563 C7.93415559 61.39093252 10.95532143 60.11939157 13.9765625 58.84765625 C16.0512645 57.98122302 18.12629868 57.11558481 20.20166016 56.25073242 C24.32811906 54.53005223 28.45287289 52.80538666 32.57617188 51.07714844 C39.6622984 48.10866757 46.76165273 45.17255937 53.86346436 42.24185181 C56.78484742 41.03573452 59.70489905 39.82640486 62.625 38.6171875 C63.54716309 38.2353833 64.46932617 37.8535791 65.41943359 37.46020508 C66.05703613 37.19618896 66.69463867 36.93217285 67.3515625 36.66015625 C67.3515625 36.00015625 67.3515625 35.34015625 67.3515625 34.66015625 C60.64611707 31.84292045 53.93809485 29.03189038 47.22827148 26.22509766 C44.94740396 25.27013516 42.66712337 24.31376949 40.38745117 23.35595703 C37.10489878 21.97707025 33.82024766 20.60329365 30.53515625 19.23046875 C29.52134384 18.80331573 28.50753143 18.37616272 27.46299744 17.93606567 C22.47392548 15.85692605 17.59108987 13.99641155 12.3515625 12.66015625 C13.24520765 13.87010879 14.14162029 15.07801736 15.0390625 16.28515625 C15.58175781 17.01863281 16.12445313 17.75210938 16.68359375 18.5078125 C18.11864108 20.35959489 19.61973058 22.02374227 21.2265625 23.72265625 C23.81281065 27.29776398 23.78318734 29.34390788 23.3515625 33.66015625 C21.3715625 33.99015625 19.3915625 34.32015625 17.3515625 34.66015625 C17.27808594 36.23216797 17.27808594 36.23216797 17.203125 37.8359375 C17.12808107 39.21486979 17.05253393 40.59377475 16.9765625 41.97265625 C16.945625 42.66294922 16.9146875 43.35324219 16.8828125 44.06445312 C16.67031331 47.73006414 16.43222389 49.53916417 14.3515625 52.66015625 C10.13806344 54.06465594 6.19262087 54.33844091 1.9765625 52.78515625 C0.3515625 51.66015625 0.3515625 51.66015625 -0.6484375 49.66015625 C-0.88016577 47.11400616 -1.06738279 44.586194 -1.2109375 42.03515625 C-1.25412109 41.32875 -1.29730469 40.62234375 -1.34179688 39.89453125 C-1.44788501 38.14997088 -1.54866639 36.40508928 -1.6484375 34.66015625 C-3.6284375 34.33015625 -5.6084375 34.00015625 -7.6484375 33.66015625 C-8.03934037 30.38161608 -8.28325275 27.74610778 -6.57177734 24.81835938 C-5.06318105 22.93759161 -3.48565386 21.16833147 -1.8359375 19.41015625 C-1.28873047 18.79914062 -0.74152344 18.188125 -0.17773438 17.55859375 C2.26123388 14.8505999 4.76282478 12.22539052 7.3515625 9.66015625 C-7.72184332 1.19890315 -16.74299407 0.6617982 -31.6484375 9.66015625 Z M7.3515625 16.66015625 C5.68192708 18.63688533 4.01576177 20.61635955 2.3515625 22.59765625 C1.87460938 23.16162109 1.39765625 23.72558594 0.90625 24.30664062 C-1.54658824 26.69150574 -1.54658824 26.69150574 -2.6484375 29.66015625 C-0.6684375 29.66015625 1.3115625 29.66015625 3.3515625 29.66015625 C3.33996094 30.86414063 3.32835938 32.068125 3.31640625 33.30859375 C3.30702816 34.88411304 3.29792798 36.459634 3.2890625 38.03515625 C3.28068359 38.82921875 3.27230469 39.62328125 3.26367188 40.44140625 C3.12116099 44.68407847 3.12116099 44.68407847 4.3515625 48.66015625 C6.35110996 48.70269981 8.35197886 48.70096408 10.3515625 48.66015625 C12.47081854 46.54090021 11.76987267 42.04054695 11.9140625 39.09765625 C11.95724609 38.29134766 12.00042969 37.48503906 12.04492188 36.65429688 C12.15131512 34.6564682 12.25197138 32.65833555 12.3515625 30.66015625 C14.3315625 30.33015625 16.3115625 30.00015625 18.3515625 29.66015625 C17.46115713 28.4270519 16.56390546 27.19889061 15.6640625 25.97265625 C15.16519531 25.28816406 14.66632813 24.60367188 14.15234375 23.8984375 C12.05605746 21.29285823 9.74706575 18.99036469 7.3515625 16.66015625 Z M-55.75268555 61.22070312 C-56.57330978 61.56105591 -57.39393402 61.90140869 -58.23942566 62.2520752 C-59.12076675 62.62392944 -60.00210785 62.99578369 -60.91015625 63.37890625 C-62.26884575 63.9449054 -62.26884575 63.9449054 -63.65498352 64.52233887 C-66.55073524 65.72998539 -69.44334142 66.94497326 -72.3359375 68.16015625 C-74.29732349 68.97965163 -76.25890964 69.79866811 -78.22070312 70.6171875 C-83.03228531 72.62595693 -87.84130466 74.64076418 -92.6484375 76.66015625 C-89.14393756 79.64505447 -85.21844643 81.23742882 -80.9921875 82.92578125 C-80.22909271 83.23643021 -79.46599792 83.54707916 -78.67977905 83.86714172 C-76.17155055 84.88704907 -73.66013867 85.89883434 -71.1484375 86.91015625 C-67.61873732 88.33855211 -64.09044855 89.770409 -60.5625 91.203125 C-59.66209991 91.56820663 -58.76169983 91.93328827 -57.83401489 92.30943298 C-51.60770967 94.84130377 -45.41424383 97.44295842 -39.234375 100.0859375 C-37.58404836 100.78823632 -35.93365894 101.49038762 -34.28320312 102.19238281 C-31.91458342 103.20016005 -29.54815145 104.21191864 -27.18725586 105.2376709 C-25.00983473 106.18315159 -22.82617089 107.11255218 -20.640625 108.0390625 C-20.00273041 108.3215535 -19.36483582 108.60404449 -18.70761108 108.89509583 C-12.98401849 111.28988117 -9.86411246 110.16915819 -4.35009766 108.00878906 C-2.62728172 107.29833023 -0.90654221 106.58282303 0.8125 105.86328125 C1.74376709 105.47765518 2.67503418 105.09202911 3.63452148 104.69471741 C6.66705857 103.43761791 9.69683059 102.1739997 12.7265625 100.91015625 C14.80535829 100.04677473 16.8842978 99.18373915 18.96337891 98.32104492 C25.09571962 95.77446117 31.2243284 93.21899926 37.3515625 90.66015625 C38.23344238 90.29190735 39.11532227 89.92365845 40.02392578 89.54425049 C49.47262043 85.59748052 58.91575798 81.63765382 68.3515625 77.66015625 C66.39562014 75.70421389 65.18358986 75.00523417 62.703125 73.91674805 C61.95474365 73.586884 61.2063623 73.25701996 60.43530273 72.91716003 C56.99107652 71.43540491 53.54331306 69.9628633 50.08740234 68.50854492 C48.27238303 67.73838458 46.46266904 66.95559218 44.65869141 66.15991211 C42.04724199 65.00887256 39.42133227 63.89932581 36.7890625 62.796875 C35.99387207 62.43768478 35.19868164 62.07849457 34.37939453 61.7084198 C27.90190612 59.07837365 23.70590584 60.04086055 17.3515625 62.66015625 C16.22596924 63.10576904 15.10037598 63.55138184 13.94067383 64.01049805 C12.9483374 64.45562744 11.95600098 64.90075684 10.93359375 65.359375 C9.82435547 65.84599609 8.71511719 66.33261719 7.57226562 66.83398438 C5.28598852 67.84937965 3.00215146 68.87028555 0.72070312 69.89648438 C-0.38466797 70.37923828 -1.49003906 70.86199219 -2.62890625 71.359375 C-3.61785889 71.80112061 -4.60681152 72.24286621 -5.62573242 72.69799805 C-12.27889634 74.81576874 -17.28001643 73.38936371 -23.4453125 70.59765625 C-24.16076233 70.28691162 -24.87621216 69.97616699 -25.61334229 69.65600586 C-27.88048505 68.66930609 -30.13967424 67.6658724 -32.3984375 66.66015625 C-34.67249523 65.65705106 -36.94804767 64.65766701 -39.22637939 63.66430664 C-40.6392425 63.04735122 -42.0494852 62.42435166 -43.45672607 61.79467773 C-48.28556706 59.6727872 -50.9074118 59.19314242 -55.75268555 61.22070312 Z M-73.38671875 127.84765625 C-74.45341797 128.29882812 -75.52011719 128.75 -76.61914062 129.21484375 C-77.72193359 129.69179687 -78.82472656 130.16875 -79.9609375 130.66015625 C-81.64413086 131.37558594 -81.64413086 131.37558594 -83.36132812 132.10546875 C-86.12720134 133.28243608 -88.88927797 134.46755482 -91.6484375 135.66015625 C-91.6484375 136.32015625 -91.6484375 136.98015625 -91.6484375 137.66015625 C-91.1159288 137.88184982 -90.5834201 138.1035434 -90.03477478 138.33195496 C-89.27556229 138.64804214 -88.51634979 138.96412933 -87.73413086 139.28979492 C-86.87206024 139.64862259 -86.00998962 140.00745026 -85.12179565 140.37715149 C-83.16870644 141.19060621 -81.21593665 142.0048282 -79.26345825 142.81974792 C-73.82936281 145.08669702 -68.3904034 147.340482 -62.94116211 149.57080078 C-53.29722626 153.53226944 -43.72131426 157.47944399 -34.4375 162.234375 C-21.17925648 169.34209207 -21.17925648 169.34209207 -6.6171875 169.81640625 C-1.24445165 167.99783257 3.61579179 165.36761997 8.56884766 162.62988281 C15.549015 158.88211973 23.00179988 156.05565751 30.31106567 153.02252197 C33.74065789 151.59128379 37.15573647 150.12733699 40.57084656 148.66195679 C49.44468813 144.85556664 58.36552367 141.1938211 67.3515625 137.66015625 C67.3515625 137.00015625 67.3515625 136.34015625 67.3515625 135.66015625 C63.53131961 133.94185556 59.69371867 132.26631361 55.8515625 130.59765625 C54.77390625 130.11232422 53.69625 129.62699219 52.5859375 129.12695312 C51.00039063 128.44536133 51.00039063 128.44536133 49.3828125 127.75 C48.41923828 127.32581787 47.45566406 126.90163574 46.46289062 126.46459961 C39.02866298 124.54245742 32.71767683 127.44456603 25.99609375 130.40625 C25.1314299 130.77742447 24.26676605 131.14859894 23.37590027 131.53102112 C20.63437313 132.71033155 17.89919964 133.90361128 15.1640625 135.09765625 C13.3161676 135.89613735 11.46786372 136.69367266 9.61914062 137.49023438 C6.23151763 138.95036816 2.84680419 140.41691445 -0.53588867 141.88842773 C-1.26029144 142.19730927 -1.98469421 142.5061908 -2.73104858 142.82443237 C-4.26472779 143.49291038 -5.77292732 144.21973153 -7.27075195 144.96508789 C-14.14445961 146.97447753 -21.00529933 143.07840686 -27.21875 140.40625 C-28.21800507 139.98594009 -29.21726013 139.56563019 -30.24679565 139.13258362 C-34.50399104 137.34181039 -38.75304655 135.53209005 -43.00244141 133.72290039 C-46.11320273 132.40176523 -49.22827319 131.09121751 -52.34375 129.78125 C-53.30217804 129.36878525 -54.26060608 128.9563205 -55.24807739 128.53135681 C-56.14606049 128.15419022 -57.04404358 127.77702362 -57.96923828 127.38842773 C-58.75420685 127.05391098 -59.53917542 126.71939423 -60.34793091 126.3747406 C-65.26833322 124.84636311 -68.7590146 125.86788977 -73.38671875 127.84765625 Z " fill="#2A918B" transform="translate(113.6484375,14.33984375)"/>
<path d="M0 0 C3.94783555 0.67259421 7.5190052 1.79803651 11.25 3.25 C12.83554688 3.84554687 12.83554688 3.84554687 14.453125 4.453125 C17 6 17 6 17.859375 8.671875 C17.90578125 9.44015625 17.9521875 10.2084375 18 11 C17.67 10.01 17.34 9.02 17 8 C15.68 8 14.36 8 13 8 C13 7.34 13 6.68 13 6 C12.01 6 11.02 6 10 6 C10 6.66 10 7.32 10 8 C2.25 7.25 2.25 7.25 0 5 C0.66 3.68 1.32 2.36 2 1 C1.34 0.67 0.68 0.34 0 0 Z " fill="#2E8E86" transform="translate(174,142)"/>
<path d="M0 0 C2.64 0.33 5.28 0.66 8 1 C6.30172081 4.39655838 2.35069769 4.90662542 -1.0625 6.125 C-1.82111328 6.40214844 -2.57972656 6.67929688 -3.36132812 6.96484375 C-5.23856568 7.64962223 -7.11899554 8.32563763 -9 9 C-8.25 4.25 -8.25 4.25 -6 2 C-2.875 1.875 -2.875 1.875 0 2 C0 1.34 0 0.68 0 0 Z " fill="#2B9491" transform="translate(120,178)"/>
<path d="M0 0 C3.55780196 0.60990891 6.6828589 1.5783681 10 3 C9.01 3.99 8.02 4.98 7 6 C8.32 7.32 9.64 8.64 11 10 C6.27934033 8.45730076 1.58335908 6.92205381 -3 5 C-2.34 4.34 -1.68 3.68 -1 3 C-0.01 3 0.98 3 2 3 C2 2.34 2 1.68 2 1 C1.34 0.67 0.68 0.34 0 0 Z " fill="#328D84" transform="translate(89,79)"/>
<path d="M0 0 C4.38889325 0.66498383 7.9811485 2.18757677 12 4 C11.360625 4.28875 10.72125 4.5775 10.0625 4.875 C7.84793921 5.82823451 7.84793921 5.82823451 7 8 C2.25 7.25 2.25 7.25 0 5 C-0.125 2.375 -0.125 2.375 0 0 Z " fill="#328B87" transform="translate(168,80)"/>
<path d="M0 0 C0.33 0 0.66 0 1 0 C1.04898438 0.63808594 1.09796875 1.27617188 1.1484375 1.93359375 C1.22320312 2.75988281 1.29796875 3.58617187 1.375 4.4375 C1.44460937 5.26121094 1.51421875 6.08492187 1.5859375 6.93359375 C1.72257812 7.61550781 1.85921875 8.29742187 2 9 C2.66 9.33 3.32 9.66 4 10 C4.625 12.0625 4.625 12.0625 5 14 C3.02 14.66 1.04 15.32 -1 16 C-1.02685095 13.52076199 -1.04676547 11.0418116 -1.0625 8.5625 C-1.07506836 7.50192383 -1.07506836 7.50192383 -1.08789062 6.41992188 C-1.09653588 4.61306441 -1.05220011 2.80612397 -1 1 C-0.67 0.67 -0.34 0.34 0 0 Z " fill="#3A868C" transform="translate(113,48)"/>
<path d="M0 0 C0.33 0.66 0.66 1.32 1 2 C1.66 2 2.32 2 3 2 C3 2.99 3 3.98 3 5 C1.39850114 5.67305018 -0.20631029 6.33822227 -1.8125 7 C-2.70582031 7.37125 -3.59914062 7.7425 -4.51953125 8.125 C-7 9 -7 9 -10 9 C-8.82648048 5.47944145 -8.09677617 5.17776613 -5 3.375 C-2.3413953 1.8943999 -2.3413953 1.8943999 0 0 Z " fill="#2E9595" transform="translate(136,70)"/>
<path d="M0 0 C-1.2065625 0.6496875 -1.2065625 0.6496875 -2.4375 1.3125 C-5.27846354 2.80474002 -5.27846354 2.80474002 -6 6 C-5.34 6.33 -4.68 6.66 -4 7 C-5.65 7.33 -7.3 7.66 -9 8 C-9 7.34 -9 6.68 -9 6 C-11.97 5.505 -11.97 5.505 -15 5 C-12.30932731 3.20621821 -9.91421743 2.02686042 -6.9375 0.8125 C-5.62072266 0.26529297 -5.62072266 0.26529297 -4.27734375 -0.29296875 C-2 -1 -2 -1 0 0 Z " fill="#358D8A" transform="translate(128,74)"/>
<path d="M0 0 C0.7940625 -0.01417969 1.588125 -0.02835937 2.40625 -0.04296875 C4.5 0.1875 4.5 0.1875 6.5 2.1875 C2.86178302 4.51595886 -0.26028942 4.42303948 -4.5 4.1875 C-5.16 3.8575 -5.82 3.5275 -6.5 3.1875 C-6.5 2.5275 -6.5 1.8675 -6.5 1.1875 C-4.14653604 0.01076802 -2.6193967 0.02126134 0 0 Z " fill="#2D949B" transform="translate(122.5,64.8125)"/>
<path d="M0 0 C0 1.98 0 3.96 0 6 C-1.97746603 6.73080266 -3.98072489 7.39421747 -6 8 C-6.66 7.67 -7.32 7.34 -8 7 C-8 4 -8 4 -6.25 1.8125 C-4 0 -4 0 0 0 Z " fill="#249792" transform="translate(158,61)"/>
<path d="M0 0 C1.98 0.495 1.98 0.495 4 1 C4 1.66 4 2.32 4 3 C5.98 3 7.96 3 10 3 C7.77174356 5.22825644 6.34238372 5.69239369 3.375 6.625 C2.55773437 6.88539062 1.74046875 7.14578125 0.8984375 7.4140625 C0.27195313 7.60742188 -0.35453125 7.80078125 -1 8 C-0.67 5.36 -0.34 2.72 0 0 Z " fill="#329390" transform="translate(181,49)"/>
<path d="M0 0 C0.66 0.33 1.32 0.66 2 1 C0.55873214 4.36295835 -1.20592655 6.62927102 -4 9 C-4.99 9 -5.98 9 -7 9 C-6.875 6.75 -6.875 6.75 -6 4 C-2.9375 1.6875 -2.9375 1.6875 0 0 Z " fill="#229384" transform="translate(57,70)"/>
<path d="M0 0 C2.00720923 0.28674418 4.0085944 0.61866701 6 1 C6 3.31 6 5.62 6 8 C2.00003714 6.66667905 1.16217663 4.5042173 -1 1 C-0.67 0.67 -0.34 0.34 0 0 Z " fill="#1D968F" transform="translate(124,32)"/>
<path d="M0 0 C1.46067199 0.45082469 2.91848032 0.91093537 4.375 1.375 C5.18710938 1.63023438 5.99921875 1.88546875 6.8359375 2.1484375 C9 3 9 3 11 5 C9.35 5 7.7 5 6 5 C6 5.99 6 6.98 6 8 C5.01 8 4.02 8 3 8 C3 6.02 3 4.04 3 2 C2.01 1.67 1.02 1.34 0 1 C0 0.67 0 0.34 0 0 Z " fill="#388D87" transform="translate(168,38)"/>
<path d="M0 0 C-2.64 1.98 -5.28 3.96 -8 6 C-8.33 5.34 -8.66 4.68 -9 4 C-9.99 3.67 -10.98 3.34 -12 3 C-10.3789897 2.30314502 -8.75303934 1.61777139 -7.125 0.9375 C-6.22007812 0.55464844 -5.31515625 0.17179688 -4.3828125 -0.22265625 C-2 -1 -2 -1 0 0 Z " fill="#2D8D85" transform="translate(176,155)"/>
<path d="M0 0 C2.64 0.99 5.28 1.98 8 3 C5 4 5 4 2 3 C2 4.32 2 5.64 2 7 C0.68 6.67 -0.64 6.34 -2 6 C-1.34 4.02 -0.68 2.04 0 0 Z " fill="#34918E" transform="translate(160,76)"/>
<path d="M0 0 C0 0.66 0 1.32 0 2 C-2.64 2.99 -5.28 3.98 -8 5 C-8.33 4.01 -8.66 3.02 -9 2 C-5.5647952 -0.29013653 -4.014669 -0.17842973 0 0 Z " fill="#369599" transform="translate(135,146)"/>
<path d="M0 0 C-0.66 1.98 -1.32 3.96 -2 6 C-3.65 6 -5.3 6 -7 6 C-7 4 -7 4 -5.1875 1.875 C-3 0 -3 0 0 0 Z " fill="#1C958B" transform="translate(167,159)"/>
<path d="M0 0 C0.928125 0.20625 1.85625 0.4125 2.8125 0.625 C-0.39086822 3.45874881 -2.96837253 4.1455537 -7.1875 4.625 C-5.78075725 0.40477175 -4.42930454 -0.52109465 0 0 Z " fill="#348A85" transform="translate(117.1875,152.375)"/>
<path d="M0 0 C4.92307692 4.30769231 4.92307692 4.30769231 5.3125 7.8125 C5.209375 8.534375 5.10625 9.25625 5 10 C4.67 8.68 4.34 7.36 4 6 C3.360625 5.896875 2.72125 5.79375 2.0625 5.6875 C1.381875 5.460625 0.70125 5.23375 0 5 C-0.33 4.01 -0.66 3.02 -1 2 C-0.67 1.34 -0.34 0.68 0 0 Z " fill="#308E86" transform="translate(133,36)"/>
<path d="M0 0 C1.98 0 3.96 0 6 0 C5.67 0.66 5.34 1.32 5 2 C4.34 2 3.68 2 3 2 C3 2.66 3 3.32 3 4 C1.68 4 0.36 4 -1 4 C-0.67 2.68 -0.34 1.36 0 0 Z " fill="#1B9590" transform="translate(176,85)"/>
<path d="M0 0 C0.99 0 1.98 0 3 0 C2.67 1.32 2.34 2.64 2 4 C0.125 4.625 0.125 4.625 -2 5 C-2.66 4.34 -3.32 3.68 -4 3 C-3.01 3 -2.02 3 -1 3 C-0.67 2.01 -0.34 1.02 0 0 Z " fill="#259991" transform="translate(157,76)"/>
<path d="M0 0 C0.33 1.98 0.66 3.96 1 6 C0.01 6.33 -0.98 6.66 -2 7 C-2.99 5.02 -3.98 3.04 -5 1 C-2 0 -2 0 0 0 Z " fill="#39958D" transform="translate(111,80)"/>
<path d="M0 0 C3 3.75 3 3.75 3 6 C1.35 6 -0.3 6 -2 6 C-1.125 1.125 -1.125 1.125 0 0 Z " fill="#229382" transform="translate(23,51)"/>
<path d="M0 0 C2.31 0.66 4.62 1.32 7 2 C6.01 3.485 6.01 3.485 5 5 C3.68 4.67 2.36 4.34 1 4 C0.67 2.68 0.34 1.36 0 0 Z " fill="#338988" transform="translate(124,20)"/>
<path d="M0 0 C2.31 0.66 4.62 1.32 7 2 C7.33 3.65 7.66 5.3 8 7 C7.67 6.01 7.34 5.02 7 4 C5.68 4 4.36 4 3 4 C3 3.34 3 2.68 3 2 C2.01 1.67 1.02 1.34 0 1 C0 0.67 0 0.34 0 0 Z " fill="#37897D" transform="translate(184,146)"/>
<path d="M0 0 C0.66 0.33 1.32 0.66 2 1 C2 1.99 2 2.98 2 4 C0.02 4.66 -1.96 5.32 -4 6 C-2.25 1.125 -2.25 1.125 0 0 Z " fill="#378B87" transform="translate(183,123)"/>
</svg>
