<?xml version="1.0" encoding="UTF-8"?>
<svg version="1.1" xmlns="http://www.w3.org/2000/svg" width="208" height="208">
<path d="M0 0 C8.30363065 3.28981938 14.67879489 14.03566852 20.05078125 20.8125 C20.92484248 21.88488043 21.79987415 22.95647048 22.67578125 24.02734375 C36.177784 40.67474059 56.15469679 66.11323671 55.05078125 88.8125 C54.43332031 89.02003906 53.81585938 89.22757812 53.1796875 89.44140625 C40.35440498 94.10691998 30.56238092 103.04592321 24.67578125 115.375 C21.24738333 123.04580094 19.71849873 129.94559455 19.86328125 138.3125 C19.86392578 139.02019531 19.86457031 139.72789062 19.86523438 140.45703125 C19.9051804 145.31269287 20.37401911 150.00478176 21.05078125 154.8125 C5.65008351 161.10767572 -11.06038322 160.7547411 -26.33203125 154.40625 C-42.73793746 146.89425839 -52.26096985 135.10614466 -59.00390625 118.5390625 C-64.22772459 103.47201622 -61.83512506 85.29881735 -55.94921875 70.8125 C-55.65402344 70.07644531 -55.35882813 69.34039062 -55.0546875 68.58203125 C-48.98179636 53.86214286 -19.53170107 -3.23506436 0 0 Z M-48.94921875 97.8125 C-51.13158009 108.21080993 -46.91411414 117.81531848 -41.69921875 126.5625 C-35.03066097 136.44600458 -25.01053851 143.44748179 -13.375 146.484375 C-8.87052029 147.0936766 -4.46745342 147.45287972 0.05078125 146.8125 C2.57146805 144.75473266 2.57146805 144.75473266 3.05078125 141.8125 C2.49201237 139.52752233 2.49201237 139.52752233 1.05078125 137.8125 C-1.59221735 136.4910007 -4.01263879 136.40879481 -6.94921875 136.0625 C-16.30043148 134.67636891 -25.0198799 130.95450054 -30.8984375 123.26171875 C-35.11510057 116.56243608 -37.70373411 111.07495939 -38.32421875 103.125 C-38.62940271 99.87340363 -38.84003049 98.95691028 -40.88671875 96.25 C-44.39887826 93.80213125 -46.04819063 95.00658756 -48.94921875 97.8125 Z " fill="#29918E" transform="translate(84.94921875,12.1875)"/>
<path d="M0 0 C8.64921808 6.8236917 14.0246612 15.53774892 16.125 26.375 C17.68117908 40.43168979 15.14363283 51.51652197 6.38671875 62.86328125 C-0.7414953 70.77941534 -10.29165704 75.9703052 -20.96484375 76.75390625 C-33.54721049 77.28104149 -43.99160724 74.49933019 -53.875 66.375 C-62.02064938 58.83327761 -67.18918461 49.64975617 -68.11328125 38.5 C-68.39650295 26.57487583 -65.74442343 15.58798352 -57.875 6.375 C-42.29187704 -9.81525762 -19.04606192 -12.85348988 0 0 Z M-33.875 11.375 C-36.6595099 14.87552674 -37.95472124 17.27883289 -37.625 21.8125 C-37.3775 22.658125 -37.13 23.50375 -36.875 24.375 C-34.07454954 25.23150653 -34.07454954 25.23150653 -30.875 25.375 C-28.4358859 23.68667984 -28.4358859 23.68667984 -26.875 21.375 C-26.875 20.715 -26.875 20.055 -26.875 19.375 C-24.875 21.375 -22.875 23.375 -20.875 25.375 C-18.41690002 25.6250773 -18.41690002 25.6250773 -15.875 25.375 C-13.64828432 23.52315766 -13.64828432 23.52315766 -13.375 20.75 C-14.08612802 15.94988585 -16.62979489 12.89764493 -19.875 9.375 C-24.77574638 6.92462681 -29.81393497 7.97248606 -33.875 11.375 Z M-46.375 34.6875 C-50.07572208 38.66577624 -51.28030467 40.88428387 -51.12890625 46.375 C-50.7557368 49.31442702 -49.74552468 51.1036486 -47.875 53.375 C-44.81277135 55.2763838 -42.39366891 55.67129562 -38.8125 55.6875 C-37.95527344 55.70425781 -37.09804687 55.72101563 -36.21484375 55.73828125 C-33.41522753 55.30361629 -32.54027559 54.63117984 -30.875 52.375 C-30.45820703 49.83269153 -30.45820703 49.83269153 -30.875 47.375 C-32.63636355 45.19168311 -32.63636355 45.19168311 -34.8203125 45.1796875 C-37.84765625 45.27734375 -37.84765625 45.27734375 -40.875 45.375 C-40.38 44.653125 -39.885 43.93125 -39.375 43.1875 C-37.76641343 40.17140018 -37.2584357 38.72206336 -37.875 35.375 C-41.28183562 32.08172557 -42.7423103 31.32726203 -46.375 34.6875 Z M-12.125 34.0625 C-14.15088528 36.22493294 -14.15088528 36.22493294 -13.75 38.875 C-12.94755665 41.16769529 -12.05377445 43.253206 -10.875 45.375 C-11.968125 45.313125 -13.06125 45.25125 -14.1875 45.1875 C-17.7330271 45.08051225 -17.7330271 45.08051225 -19.875 46.5625 C-21.10704319 48.40585392 -21.10704319 48.40585392 -20.6875 50.9375 C-20.02872967 53.51941272 -20.02872967 53.51941272 -17.875 55.375 C-12.89832573 56.14477336 -8.88742388 55.88121194 -4.375 53.625 C-1.3228397 50.96669802 -1.3228397 50.96669802 0.125 47.375 C-0.11219941 40.97061602 -2.38720527 36.86279473 -6.875 32.375 C-9.94375 32.075 -9.94375 32.075 -12.125 34.0625 Z " fill="#29918D" transform="translate(181.875,115.625)"/>
<path d="M0 0 C0.33 0 0.66 0 1 0 C1.125 3.375 1.125 3.375 1 7 C0.34 7.66 -0.32 8.32 -1 9 C-1.99 9 -2.98 9 -4 9 C-2.94124926 5.59687262 -1.99097846 2.98646769 0 0 Z " fill="#2F8F81" transform="translate(39,63)"/>
<path d="M0 0 C0.66 0 1.32 0 2 0 C2.33 1.32 2.66 2.64 3 4 C3.66 4 4.32 4 5 4 C4.67 5.65 4.34 7.3 4 9 C1.3144406 6.3144406 0.93950026 3.62378672 0 0 Z " fill="#338C84" transform="translate(25,127)"/>
<path d="M0 0 C1.98 0.495 1.98 0.495 4 1 C3.67 2.32 3.34 3.64 3 5 C1.68 4.34 0.36 3.68 -1 3 C-0.67 2.01 -0.34 1.02 0 0 Z " fill="#1A998B" transform="translate(61,157)"/>
</svg>
