<?xml version="1.0" encoding="UTF-8"?>
<svg version="1.1" xmlns="http://www.w3.org/2000/svg" width="280" height="226">
<path d="M0 0 C3.80618818 1.77461517 6.11662473 3.91066935 9 7 C9.49886719 7.5053125 9.99773437 8.010625 10.51171875 8.53125 C19.23900533 17.85208 21.22296481 30.58829221 21 43 C24.45251517 42.15605185 26.49298036 41.63377455 28.75 38.8125 C30.17662754 35.60258804 31.13310364 32.40090111 32 29 C32.66 29 33.32 29 34 29 C38.5347181 37.53940422 42.60770881 46.10103081 45.9375 55.1875 C46.23148682 55.98841064 46.52547363 56.78932129 46.82836914 57.61450195 C50.99239329 69.25526279 52.20915556 82.81359479 46.9296875 94.3359375 C44.03328688 99.81906069 40.91548052 105.57465397 35.1875 108.375 C34.1046875 108.684375 34.1046875 108.684375 33 109 C33.2165625 108.41734375 33.433125 107.8346875 33.65625 107.234375 C39.48185004 90.08121934 33.42118604 72.27471777 27 56 C26.01 56 25.02 56 24 56 C23.81824219 56.56589844 23.63648438 57.13179687 23.44921875 57.71484375 C23.07216797 58.81505859 23.07216797 58.81505859 22.6875 59.9375 C22.44386719 60.66839844 22.20023438 61.39929688 21.94921875 62.15234375 C21 64 21 64 18 65 C17.85304687 64.38253906 17.70609375 63.76507813 17.5546875 63.12890625 C14.90231738 53.11392252 9.77920232 44.82160325 1 39 C0.01 39 -0.98 39 -2 39 C-1.95875 40.155 -1.9175 41.31 -1.875 42.5 C-1.58319173 50.67063169 -4.46053913 56.31286495 -9.1875 62.625 C-19.2549308 76.6327233 -25.20345975 89.36136302 -22.55078125 106.984375 C-22.09714147 109.00484154 -21.55963789 111.00629002 -21 113 C-28.36135307 109.57611485 -32.59554757 106.28729598 -35.984375 98.85546875 C-39.60267297 88.68248486 -37.57263021 78.39409797 -36.12573242 67.98193359 C-35.02464616 59.90730099 -34.64774166 52.14108157 -35 44 C-33.125 44.27734375 -33.125 44.27734375 -31 45 C-29.875 46.56640625 -29.875 46.56640625 -29 48.5625 C-28.67515625 49.27535156 -28.3503125 49.98820312 -28.015625 50.72265625 C-27.68046875 51.47417969 -27.3453125 52.22570312 -27 53 C-26.25713185 54.50354478 -25.50745861 56.00375254 -24.75 57.5 C-24.1725 58.655 -23.595 59.81 -23 61 C-22.34 61 -21.68 61 -21 61 C-20.7369104 59.91283691 -20.7369104 59.91283691 -20.46850586 58.80371094 C-14.15897456 33.10775127 -14.15897456 33.10775127 -7 23 C-5.86092684 21.15444551 -4.73536171 19.30046965 -3.625 17.4375 C-3.14289063 16.65246094 -2.66078125 15.86742187 -2.1640625 15.05859375 C-0.17291414 11.53733474 0.11402494 8.77992068 0.0625 4.8125 C0.05347656 3.91144531 0.04445312 3.01039062 0.03515625 2.08203125 C0.02355469 1.39496094 0.01195312 0.70789063 0 0 Z " fill="#2A918E" transform="translate(137,25)"/>
<path d="M0 0 C5.68261079 2.41080458 8.808922 7.39097201 11.3125 12.875 C12.26826079 17.21936723 12.66722579 21.56884867 13 26 C15.70931419 25.84518205 17.46584039 25.51827919 19.4453125 23.59765625 C20.67679642 22.10228292 21.8429837 20.5537076 23 19 C25 20 25 20 26.2890625 23.47265625 C29.6062643 34.44409759 33.26536013 47.54191239 28.4375 58.625 C25.00510232 64.08070578 19.79718755 68.51414977 13.625 70.52734375 C3.87500841 72.28292259 -7.40159359 72.46523969 -16 67 C-20.63282951 62.59881196 -22.07448541 57.63572065 -22.375 51.375 C-21.99081599 37.80723824 -14.03912438 25.01523175 -5.625 14.75 C-2.15642732 10.3950143 -1.12416139 5.36441926 0 0 Z " fill="#29918E" transform="translate(139,71)"/>
<path d="M0 0 C6.49878391 1.35090765 12.75103319 3.07830246 19.0625 5.125 C20.3609082 5.54072266 20.3609082 5.54072266 21.68554688 5.96484375 C23.7915314 6.63968962 25.89628687 7.31811341 28 8 C26.44805246 11.32759923 24.69378051 13.48580485 22 16 C28.48476968 32.00811714 54.98977299 45.43738912 70 52 C94.70493303 61.75375484 120.55494344 61.28584972 145 51 C163.34256488 42.8287397 179.65331311 30.99204969 194 17 C193.33291016 16.29423828 193.33291016 16.29423828 192.65234375 15.57421875 C192.08644531 14.95160156 191.52054688 14.32898438 190.9375 13.6875 C190.08478516 12.76517578 190.08478516 12.76517578 189.21484375 11.82421875 C188.81394531 11.22222656 188.41304687 10.62023437 188 10 C188.33 9.01 188.66 8.02 189 7 C191.59204102 6.0168457 191.59204102 6.0168457 195.00390625 5.17578125 C196.82631836 4.71655273 196.82631836 4.71655273 198.68554688 4.24804688 C200.60463867 3.78495117 200.60463867 3.78495117 202.5625 3.3125 C203.85901728 2.99010962 205.15524597 2.66655627 206.45117188 2.34179688 C209.63145307 1.54968223 212.81422743 0.76967659 216 0 C215.43615943 6.73432123 213.65441874 12.63458974 211.4375 19 C211.10814453 19.96550781 210.77878906 20.93101563 210.43945312 21.92578125 C209.63313798 24.28629806 208.81987837 26.64416717 208 29 C207.52949219 28.566875 207.05898437 28.13375 206.57421875 27.6875 C205.95160156 27.130625 205.32898438 26.57375 204.6875 26 C204.07261719 25.443125 203.45773438 24.88625 202.82421875 24.3125 C200.96868665 22.70798502 200.96868665 22.70798502 198 23 C196.37953835 24.31893205 196.37953835 24.31893205 194.8203125 26.09765625 C191.11402761 29.96233769 187.14260869 33.21438009 182.875 36.4375 C182.13000244 37.00170654 181.38500488 37.56591309 180.61743164 38.1472168 C158.93259265 54.37423587 134.31835817 66.47680695 106.75 66.3125 C105.24457642 66.30404053 105.24457642 66.30404053 103.70874023 66.29541016 C78.42890835 65.88541208 54.35934988 54.91250445 35 39 C34.4426416 38.54270508 33.8852832 38.08541016 33.31103516 37.61425781 C23.48685004 29.52054635 23.48685004 29.52054635 19.2421875 25.1796875 C17.28807156 22.80799977 17.28807156 22.80799977 15.0625 22.875 C13.08398938 23.95418761 11.58566129 25.11934514 9.87109375 26.5703125 C8.44990234 27.77300781 8.44990234 27.77300781 7 29 C5.82225034 25.10742998 4.65976173 21.21046365 3.5 17.3125 C3.16613281 16.20970703 2.83226562 15.10691406 2.48828125 13.97070312 C2.17246094 12.90400391 1.85664062 11.83730469 1.53125 10.73828125 C1.09135742 9.26935425 1.09135742 9.26935425 0.64257812 7.77075195 C0.01660433 5.07159672 -0.12328304 2.75845795 0 0 Z " fill="#2B918B" transform="translate(37,106)"/>
<path d="M0 0 C6.27 0 12.54 0 19 0 C21.63763859 5.27527718 24.09245518 10.41509066 26.25 15.875 C26.518125 16.53757813 26.78625 17.20015625 27.0625 17.8828125 C29 22.74633291 29 22.74633291 29 25 C22.73 25 16.46 25 10 25 C7.36236141 19.72472282 4.90754482 14.58490934 2.75 9.125 C2.481875 8.46242187 2.21375 7.79984375 1.9375 7.1171875 C0 2.25366709 0 2.25366709 0 0 Z " fill="#29918E" transform="translate(178,184)"/>
<path d="M0 0 C6.27 0 12.54 0 19 0 C20.50409789 3.79008793 22.0034468 7.58193424 23.5 11.375 C23.92925781 12.45523438 24.35851562 13.53546875 24.80078125 14.6484375 C25.40986328 16.1953125 25.40986328 16.1953125 26.03125 17.7734375 C26.40830078 18.72653809 26.78535156 19.67963867 27.17382812 20.66162109 C28 23 28 23 28 25 C21.73 25 15.46 25 9 25 C0 5.75 0 5.75 0 0 Z " fill="#2A918E" transform="translate(107,184)"/>
<path d="M0 0 C6.27 0 12.54 0 19 0 C22.88513887 8.21429361 26.02827778 16.42445875 29 25 C22.73 25 16.46 25 10 25 C7.36236141 19.72472282 4.90754482 14.58490934 2.75 9.125 C2.481875 8.46242187 2.21375 7.79984375 1.9375 7.1171875 C0 2.25366709 0 2.25366709 0 0 Z " fill="#2A918D" transform="translate(202,184)"/>
<path d="M0 0 C6.27 0 12.54 0 19 0 C21.63763859 5.27527718 24.09245518 10.41509066 26.25 15.875 C26.518125 16.53757813 26.78625 17.20015625 27.0625 17.8828125 C29 22.74633291 29 22.74633291 29 25 C22.73 25 16.46 25 10 25 C6.11486113 16.78570639 2.97172222 8.57554125 0 0 Z " fill="#2A918D" transform="translate(154,184)"/>
<path d="M0 0 C5.94 0 11.88 0 18 0 C20.63763859 5.27527718 23.09245518 10.41509066 25.25 15.875 C25.518125 16.53757813 25.78625 17.20015625 26.0625 17.8828125 C28 22.74633291 28 22.74633291 28 25 C21.73 25 15.46 25 9 25 C6.48580671 19.55258121 3.99114591 14.1028097 1.6875 8.5625 C1.36136719 7.78003906 1.03523437 6.99757812 0.69921875 6.19140625 C0 4 0 4 0 0 Z " fill="#2A918D" transform="translate(131,184)"/>
<path d="M0 0 C6.27 0 12.54 0 19 0 C20.50409789 3.79008793 22.0034468 7.58193424 23.5 11.375 C23.92925781 12.45523438 24.35851562 13.53546875 24.80078125 14.6484375 C25.40986328 16.1953125 25.40986328 16.1953125 26.03125 17.7734375 C26.40830078 18.72653809 26.78535156 19.67963867 27.17382812 20.66162109 C28 23 28 23 28 25 C21.73 25 15.46 25 9 25 C7.49359962 21.39838799 5.99465866 17.79398119 4.5 14.1875 C4.07074219 13.16333984 3.64148438 12.13917969 3.19921875 11.08398438 C2.79316406 10.10107422 2.38710937 9.11816406 1.96875 8.10546875 C1.59169922 7.19949951 1.21464844 6.29353027 0.82617188 5.36010742 C0 3 0 3 0 0 Z " fill="#2A918E" transform="translate(83,184)"/>
<path d="M0 0 C6.27 0 12.54 0 19 0 C20.50409789 3.79008793 22.0034468 7.58193424 23.5 11.375 C23.92925781 12.45523438 24.35851562 13.53546875 24.80078125 14.6484375 C25.40986328 16.1953125 25.40986328 16.1953125 26.03125 17.7734375 C26.40830078 18.72653809 26.78535156 19.67963867 27.17382812 20.66162109 C28 23 28 23 28 25 C21.73 25 15.46 25 9 25 C7.49359962 21.39838799 5.99465866 17.79398119 4.5 14.1875 C4.07074219 13.16333984 3.64148437 12.13917969 3.19921875 11.08398438 C2.79316406 10.10107422 2.38710938 9.11816406 1.96875 8.10546875 C1.59169922 7.19949951 1.21464844 6.29353027 0.82617188 5.36010742 C0 3 0 3 0 0 Z " fill="#2B918E" transform="translate(59,184)"/>
<path d="M0 0 C5.28 0 10.56 0 16 0 C16 8.25 16 16.5 16 25 C14.02 25 12.04 25 10 25 C7.25487527 19.82649571 4.93388031 14.55359507 2.75 9.125 C2.47978027 8.45847412 2.20956055 7.79194824 1.93115234 7.10522461 C0 2.24753818 0 2.24753818 0 0 Z " fill="#2A908F" transform="translate(226,184)"/>
<path d="M0 0 C1.98 0 3.96 0 6 0 C7.50855339 3.6006459 9.00535824 7.20605959 10.5 10.8125 C10.92925781 11.83666016 11.35851563 12.86082031 11.80078125 13.91601562 C12.20683594 14.89892578 12.61289062 15.88183594 13.03125 16.89453125 C13.59682617 18.25348511 13.59682617 18.25348511 14.17382812 19.63989258 C15 22 15 22 15 25 C10.05 25 5.1 25 0 25 C0 16.75 0 8.5 0 0 Z " fill="#2F8F8B" transform="translate(48,184)"/>
<path d="M0 0 C5.28 0 10.56 0 16 0 C16 8.25 16 16.5 16 25 C15.67 25 15.34 25 15 25 C15 17.08 15 9.16 15 1 C11.37 1.33 7.74 1.66 4 2 C3.67 3.65 3.34 5.3 3 7 C1 4 1 4 0 0 Z " fill="#3D8987" transform="translate(226,184)"/>
<path d="M0 0 C4.455 0.99 4.455 0.99 9 2 C7.21398196 5.57203608 5.93313183 7.43350965 3 10 C2.34 10 1.68 10 1 10 C1.33 7.03 1.66 4.06 2 1 C1.34 0.67 0.68 0.34 0 0 Z " fill="#358E7F" transform="translate(56,112)"/>
<path d="M0 0 C0.33 1.32 0.66 2.64 1 4 C0.34 4 -0.32 4 -1 4 C-1 4.66 -1 5.32 -1 6 C-0.34 6 0.32 6 1 6 C0.67 7.32 0.34 8.64 0 10 C-0.33 9.34 -0.66 8.68 -1 8 C-1.66 8 -2.32 8 -3 8 C-3 7.34 -3 6.68 -3 6 C-3.66 6 -4.32 6 -5 6 C-5 6.66 -5 7.32 -5 8 C-5.66 8 -6.32 8 -7 8 C-5.61918777 3.8575633 -3.40174442 2.67796901 0 0 Z " fill="#2F8E92" transform="translate(223,130)"/>
<path d="M0 0 C1.64826111 2.96687001 2.44271087 5.65626525 3 9 C1.02 8.01 -0.96 7.02 -3 6 C-3 4.33333333 -3 2.66666667 -3 1 C-2.01 0.67 -1.02 0.34 0 0 Z " fill="#319082" transform="translate(113,129)"/>
<path d="M0 0 C0.99 0 1.98 0 3 0 C3.33 2.31 3.66 4.62 4 7 C2.35 7 0.7 7 -1 7 C-1.04254356 5.00045254 -1.04080783 2.99958364 -1 1 C-0.67 0.67 -0.34 0.34 0 0 Z " fill="#229694" transform="translate(170,57)"/>
<path d="M0 0 C6.27 0 12.54 0 19 0 C19 0.33 19 0.66 19 1 C14.05 1 9.1 1 4 1 C3.67 2.98 3.34 4.96 3 7 C1 4 1 4 0 0 Z " fill="#418981" transform="translate(202,184)"/>
<path d="M0 0 C6.27 0 12.54 0 19 0 C19 0.33 19 0.66 19 1 C13.72 1 8.44 1 3 1 C3 2.98 3 4.96 3 7 C1 4 1 4 0 0 Z " fill="#3F8986" transform="translate(178,184)"/>
<path d="M0 0 C5.94 0 11.88 0 18 0 C18 0.33 18 0.66 18 1 C16.94039062 1.02578125 15.88078125 1.0515625 14.7890625 1.078125 C13.40099999 1.1343978 12.01298075 1.19174533 10.625 1.25 C9.57699219 1.27126953 9.57699219 1.27126953 8.5078125 1.29296875 C6.22282354 1.36035782 6.22282354 1.36035782 3 2 C1.43516506 3.91388341 1.43516506 3.91388341 1 6 C0.67 4.02 0.34 2.04 0 0 Z " fill="#3F8986" transform="translate(131,184)"/>
<path d="M0 0 C2.35953094 2.35953094 2.49141413 3.77895617 3 7 C2.34 7 1.68 7 1 7 C1 7.66 1 8.32 1 9 C0.34 9 -0.32 9 -1 9 C-1.09765625 2.84765625 -1.09765625 2.84765625 -1 1 C-0.67 0.67 -0.34 0.34 0 0 Z " fill="#2F8C99" transform="translate(59,199)"/>
<path d="M0 0 C0.66 0.33 1.32 0.66 2 1 C2 4 2 4 0.125 6.1875 C-2 8 -2 8 -4 8 C-3.40072174 4.64404172 -2.15377564 2.62198774 0 0 Z " fill="#348B90" transform="translate(162,90)"/>
<path d="M0 0 C2.64 0.33 5.28 0.66 8 1 C8 1.66 8 2.32 8 3 C5.36 3.33 2.72 3.66 0 4 C0 2.68 0 1.36 0 0 Z " fill="#269393" transform="translate(77,145)"/>
<path d="M0 0 C0.99 0 1.98 0 3 0 C3.33 0.99 3.66 1.98 4 3 C0.25 6 0.25 6 -2 6 C-1.34 4.02 -0.68 2.04 0 0 Z " fill="#388892" transform="translate(172,128)"/>
<path d="M0 0 C1.32 0 2.64 0 4 0 C4 1.65 4 3.3 4 5 C3.34 5 2.68 5 2 5 C2 4.01 2 3.02 2 2 C-0.475 3.485 -0.475 3.485 -3 5 C-1.125 1.125 -1.125 1.125 0 0 Z " fill="#1E978B" transform="translate(228,126)"/>
<path d="M0 0 C0.99 0.33 1.98 0.66 3 1 C3 2.65 3 4.3 3 6 C1.68 5.34 0.36 4.68 -1 4 C-0.67 2.68 -0.34 1.36 0 0 Z " fill="#269488" transform="translate(177,159)"/>
<path d="M0 0 C0.33 0 0.66 0 1 0 C0.67 2.64 0.34 5.28 0 8 C-0.99 7.34 -1.98 6.68 -3 6 C-2.67 4.68 -2.34 3.36 -2 2 C-1.34 2 -0.68 2 0 2 C0 1.34 0 0.68 0 0 Z " fill="#229693" transform="translate(68,133)"/>
<path d="M0 0 C1.98 0.495 1.98 0.495 4 1 C3.67 2.32 3.34 3.64 3 5 C1.68 4.34 0.36 3.68 -1 3 C-0.67 2.01 -0.34 1.02 0 0 Z " fill="#20998A" transform="translate(51,187)"/>
</svg>
