<?xml version="1.0" encoding="UTF-8"?>
<svg version="1.1" xmlns="http://www.w3.org/2000/svg" width="244" height="162">
<path d="M0 0 C1.486329 2.97265801 1.14734514 6.00415853 1.14526367 9.26367188 C1.14862228 10.01177628 1.1519809 10.75988068 1.15544128 11.53065491 C1.16496083 14.0100367 1.16689477 16.48935106 1.16796875 18.96875 C1.17118019 20.6874596 1.17454417 22.40616892 1.17805481 24.12487793 C1.18404828 27.72958002 1.18589444 31.33425812 1.18530273 34.93896484 C1.185201 39.56627355 1.19886411 44.19342921 1.21607494 48.8207016 C1.22717191 52.37051099 1.22922267 55.92028307 1.22869301 59.47010803 C1.22987619 61.17660551 1.23431678 62.88310387 1.24202538 64.58958435 C1.25178075 66.9719427 1.24896527 69.35396481 1.24291992 71.73632812 C1.24853943 72.44600235 1.25415894 73.15567657 1.25994873 73.88685608 C1.2283171 78.7716829 1.2283171 78.7716829 -1 81 C-5.43832923 80.71375072 -8.81437027 78.57508023 -12.5078125 76.2890625 C-13.115112 75.9202597 -13.7224115 75.55145691 -14.34811401 75.17147827 C-15.62600535 74.39325348 -16.90169901 73.61140976 -18.17529297 72.82617188 C-20.12061918 71.62769892 -22.07326719 70.44195243 -24.02734375 69.2578125 C-25.27128581 68.49813626 -26.51479067 67.73774355 -27.7578125 66.9765625 C-28.33910919 66.62332916 -28.92040588 66.27009583 -29.51931763 65.90615845 C-31.03296304 64.96913186 -32.51818782 63.98659714 -34 63 C-34.61117676 62.59539551 -35.22235352 62.19079102 -35.85205078 61.77392578 C-37.8369741 58.70662403 -37.5524084 55.1872236 -37.609375 51.640625 C-37.62647522 50.81802185 -37.64357544 49.9954187 -37.66119385 49.14788818 C-37.689525 47.40632678 -37.70913855 45.664605 -37.72070312 43.92285156 C-37.74976773 41.27119048 -37.84275086 38.6265775 -37.9375 35.9765625 C-38.17530767 23.77675374 -38.17530767 23.77675374 -35.35644531 19.51538086 C-33.01014509 17.65212691 -30.66867177 16.35834337 -28 15 C-26.07649542 13.69597999 -24.16545759 12.37342909 -22.265625 11.03515625 C-20.26319184 9.70674471 -18.2579466 8.38256296 -16.25 7.0625 C-15.23550781 6.37865234 -14.22101563 5.69480469 -13.17578125 4.99023438 C-12.19480469 4.34505859 -11.21382812 3.69988281 -10.203125 3.03515625 C-9.32301758 2.4512915 -8.44291016 1.86742676 -7.53613281 1.26586914 C-4.76846617 -0.11556632 -3.04955517 -0.26599735 0 0 Z " fill="#28918E" transform="translate(132,33)"/>
<path d="M0 0 C0.67482968 4.5196538 1.33841011 9.04089074 2 13.5625 C2.19078125 14.83931641 2.3815625 16.11613281 2.578125 17.43164062 C2.75859375 18.67236328 2.9390625 19.91308594 3.125 21.19140625 C3.37636719 22.89598999 3.37636719 22.89598999 3.6328125 24.63500977 C4.01274778 28.11682362 4.06225015 31.50037444 4 35 C3.22914063 34.71125 2.45828125 34.4225 1.6640625 34.125 C0.66117188 33.75375 -0.34171875 33.3825 -1.375 33 C-2.37273437 32.62875 -3.37046875 32.2575 -4.3984375 31.875 C-6.85848061 30.89373723 -6.85848061 30.89373723 -9 31 C-9.2962326 31.74724335 -9.59246521 32.49448669 -9.89767456 33.26437378 C-12.68795138 40.30013395 -15.48317776 47.33389717 -18.28400993 54.36546135 C-19.72382835 57.98067469 -21.16170877 61.59663401 -22.59521484 65.21435547 C-23.97824697 68.70449043 -25.3662979 72.19258973 -26.75787735 75.6793251 C-27.28836077 77.0110841 -27.81702023 78.34357111 -28.34383774 79.67678452 C-29.081026 81.54147625 -29.82526102 83.40337749 -30.56982422 85.26513672 C-31.20269852 86.85731522 -31.20269852 86.85731522 -31.84835815 88.48165894 C-33 91 -33 91 -35 93 C-37.625 92.625 -37.625 92.625 -40 92 C-39.54558701 84.46168485 -36.94833911 78.19592916 -34.08984375 71.2578125 C-33.34609642 69.41757723 -32.60235218 67.57734069 -31.85879612 65.73702812 C-30.82266503 63.17941893 -29.77779825 60.62541651 -28.73297119 58.0713501 C-26.89630252 53.57740953 -25.0717652 49.07853886 -23.24989319 44.57858276 C-22.28033173 42.18635149 -21.30667012 39.79577724 -20.32859802 37.40701294 C-19.89136917 36.33184418 -19.45414032 35.25667542 -19.00366211 34.14892578 C-18.61585068 33.20042755 -18.22803925 32.25192932 -17.82847595 31.27468872 C-16.88592557 29.09027107 -16.88592557 29.09027107 -17 27 C-20.63 25.35 -24.26 23.7 -28 22 C-26.70505315 18.11515946 -24.30240941 16.70197717 -21.125 14.375 C-19.94140211 13.49133022 -18.75913427 12.60587647 -17.578125 11.71875 C-16.98064453 11.27015625 -16.38316406 10.8215625 -15.76757812 10.359375 C-12.15077184 7.57783116 -8.7050298 4.58680597 -5.2421875 1.6171875 C-3 0 -3 0 0 0 Z " fill="#29918A" transform="translate(234,6)"/>
<path d="M0 0 C4.9266311 1.55132468 8.33779383 4.4501531 12.25 7.6875 C13.57905501 8.76998824 14.90848122 9.85202088 16.23828125 10.93359375 C16.87975098 11.45808105 17.5212207 11.98256836 18.18212891 12.52294922 C21.73814645 15.41227317 25.36925471 18.20560525 29 21 C26.71540242 23.28459758 24.87462656 23.97129748 21.875 25.125 C20.96492188 25.47820313 20.05484375 25.83140625 19.1171875 26.1953125 C18.41851563 26.46085937 17.71984375 26.72640625 17 27 C19.0705621 34.4671327 21.72324988 41.57597862 24.66796875 48.73828125 C25.56988764 50.9614968 26.47157359 53.18480685 27.37304688 55.40820312 C28.7853777 58.87676137 30.20046163 62.34414741 31.61987305 65.80981445 C32.99760653 69.17879409 34.36467148 72.55194851 35.73046875 75.92578125 C36.15853317 76.96229324 36.5865976 77.99880524 37.02763367 79.06672668 C37.41836563 80.03510971 37.8090976 81.00349274 38.21166992 82.0012207 C38.55791916 82.84820023 38.9041684 83.69517975 39.26091003 84.56782532 C40.05108536 87.16811015 40.13804977 89.29808806 40 92 C37.525 92.495 37.525 92.495 35 93 C32.79603151 89.50198256 31.08714779 86.03482681 29.5480957 82.19995117 C29.087845 81.05914597 28.6275943 79.91834076 28.15339661 78.7429657 C27.66578354 77.52196671 27.17817047 76.30096771 26.67578125 75.04296875 C26.16477337 73.77201199 25.65338969 72.50120626 25.14164734 71.23054504 C23.80137422 67.89974062 22.46619016 64.56691942 21.13208008 61.23364258 C19.76757224 57.82704735 18.39822751 54.42239788 17.02929688 51.01757812 C14.34814521 44.34693973 11.67237052 37.67416183 9 31 C7.39566191 31.47859241 5.79153584 31.95789558 4.1875 32.4375 C3.29417969 32.70433594 2.40085937 32.97117188 1.48046875 33.24609375 C-0.35473055 33.80387873 -2.18033726 34.39344575 -4 35 C-3.42561076 23.21511729 -1.77328609 11.65397611 0 0 Z " fill="#29918A" transform="translate(12,6)"/>
<path d="M0 0 C8.20146182 -1.30859093 16.96272874 -2.58149072 25 0 C31.34540621 5.23325978 35.18446561 13.38433756 38 21 C38 21.66 38 22.32 38 23 C29.47613158 24.23177289 20.37090393 25.50603118 12 23 C5.91010655 18.16042314 2.31507387 10.3135661 0 3 C0 2.01 0 1.02 0 0 Z " fill="#2B908B" transform="translate(85,133)"/>
<path d="M0 0 C4.04042673 -0.26233625 8.07866481 -0.42150491 12.125 -0.5625 C13.26710937 -0.63791016 14.40921875 -0.71332031 15.5859375 -0.79101562 C23.897962 -1.00848138 23.897962 -1.00848138 27.00732422 1.83691406 C28.55611407 4.15839687 29.79476701 6.48549075 31 9 C32.04800781 10.57394531 32.04800781 10.57394531 33.1171875 12.1796875 C33.69726562 13.06914062 34.27734375 13.95859375 34.875 14.875 C35.47054687 15.77992188 36.06609375 16.68484375 36.6796875 17.6171875 C38 20 38 20 38 23 C16.61267448 25.5420364 16.61267448 25.5420364 10.8828125 21.51025391 C7.60992405 17.77927631 5.58784781 13.49631427 3.78222656 8.90478516 C2.77245257 6.44590353 1.37304056 4.27014988 0 2 C0 1.34 0 0.68 0 0 Z " fill="#29928A" transform="translate(162,133)"/>
<path d="M0 0 C8.52731503 -1.30330142 17.63532978 -2.60340206 26 0 C32.41132613 5.18774295 36.22877383 13.35183172 39 21 C39 21.66 39 22.32 39 23 C30.48399406 24.36355262 21.33630923 25.73079345 13 23 C6.48093233 17.42800623 2.90122493 8.92620456 0 1 C0 0.67 0 0.34 0 0 Z " fill="#2A908C" transform="translate(122,133)"/>
<path d="M0 0 C4.01928423 -0.29206649 8.03583834 -0.46849455 12.0625 -0.625 C13.19623047 -0.70878906 14.32996094 -0.79257813 15.49804688 -0.87890625 C23.77415705 -1.12019226 23.77415705 -1.12019226 27.23217773 2.03979492 C29.05246654 4.61471326 30.55342667 7.20028167 32 10 C32.73102022 11.19328079 33.46808812 12.38290905 34.21484375 13.56640625 C34.78332031 14.55511719 35.35179687 15.54382813 35.9375 16.5625 C36.81728516 18.08037109 36.81728516 18.08037109 37.71484375 19.62890625 C39 22 39 22 39 23 C30.47268497 24.30330142 21.36467022 25.60340206 13 23 C6.58867387 17.81225705 2.77122617 9.64816828 0 2 C0 1.34 0 0.68 0 0 Z " fill="#28908C" transform="translate(45,133)"/>
<path d="M0 0 C4.08319884 -0.0871142 8.16615864 -0.14043048 12.25 -0.1875 C13.40886719 -0.21263672 14.56773437 -0.23777344 15.76171875 -0.26367188 C16.87675781 -0.27333984 17.99179688 -0.28300781 19.140625 -0.29296875 C20.16704102 -0.3086792 21.19345703 -0.32438965 22.25097656 -0.34057617 C25.43745834 0.05419666 26.78829605 0.68612759 29 3 C29.50170898 4.96118164 29.50170898 4.96118164 29.49609375 7.16015625 C29.49673828 7.95357422 29.49738281 8.74699219 29.49804688 9.56445312 C29.47806641 10.38880859 29.45808594 11.21316406 29.4375 12.0625 C29.44458984 12.89072266 29.45167969 13.71894531 29.45898438 14.57226562 C29.41068799 19.13813174 29.41068799 19.13813174 29 21 C24.80009704 23.79993531 21.44412182 24.13005013 16.44140625 24.11328125 C10.22633783 22.10273131 7.94907718 16.5052018 5.0234375 10.98828125 C4.67764648 10.30072754 4.33185547 9.61317383 3.97558594 8.90478516 C3.13514631 7.26386675 2.18972206 5.6774979 1.2265625 4.10546875 C0 2 0 2 0 0 Z " fill="#29918E" transform="translate(200,133)"/>
<path d="M0 0 C3.63 0 7.26 0 11 0 C11 12.21 11 24.42 11 37 C7.37 37 3.74 37 0 37 C-3.27982716 32.62689712 -3.38332897 31.62372914 -3.3984375 26.40625 C-3.40230469 25.12878906 -3.40617187 23.85132812 -3.41015625 22.53515625 C-3.40387207 21.87273926 -3.39758789 21.21032227 -3.39111328 20.52783203 C-3.37504886 18.50614911 -3.39097765 16.48646487 -3.41015625 14.46484375 C-3.40628906 13.18738281 -3.40242188 11.90992187 -3.3984375 10.59375 C-3.39505371 9.42521484 -3.39166992 8.25667969 -3.38818359 7.05273438 C-3 4 -3 4 0 0 Z " fill="#27908D" transform="translate(80,56)"/>
<path d="M0 0 C3.70793866 0.84863096 4.6498406 1.85791694 6.81640625 4.9375 C7.91708009 6.8325025 8.97705121 8.75150256 10.00390625 10.6875 C11.31450126 12.87614187 12.62698148 15.06365601 13.94140625 17.25 C17.00390625 22.53365385 17.00390625 22.53365385 17.00390625 23.6875 C12.73312969 23.74544812 8.46245389 23.78107874 4.19140625 23.8125 C2.97646484 23.82925781 1.76152344 23.84601563 0.50976562 23.86328125 C-0.65361328 23.86972656 -1.81699219 23.87617188 -3.015625 23.8828125 C-4.62594604 23.89852295 -4.62594604 23.89852295 -6.26879883 23.91455078 C-8.99609375 23.6875 -8.99609375 23.6875 -11.99609375 21.6875 C-12.38427734 19.74804688 -12.38427734 19.74804688 -12.39453125 17.40625 C-12.39839844 16.56449219 -12.40226562 15.72273437 -12.40625 14.85546875 C-12.39464844 13.97503906 -12.38304688 13.09460938 -12.37109375 12.1875 C-12.38269531 11.30707031 -12.39429687 10.42664063 -12.40625 9.51953125 C-12.40238281 8.67777344 -12.39851563 7.83601562 -12.39453125 6.96875 C-12.39114746 6.19595703 -12.38776367 5.42316406 -12.38427734 4.62695312 C-11.29777628 -0.80145219 -4.31885787 -0.0831549 0 0 Z " fill="#28908C" transform="translate(28.99609375,132.3125)"/>
<path d="M0 0 C0.556875 0.226875 1.11375 0.45375 1.6875 0.6875 C2.0175 2.0075 2.3475 3.3275 2.6875 4.6875 C-1.10812984 7.62697273 -4.91220396 10.55475052 -8.72705078 13.46923828 C-10.01256146 14.45702674 -11.28728074 15.45884824 -12.55859375 16.46484375 C-15.19085045 18.48740179 -16.90609275 19.64426519 -20.25 20 C-20.930625 19.896875 -21.61125 19.79375 -22.3125 19.6875 C-22.6425 18.0375 -22.9725 16.3875 -23.3125 14.6875 C-20.75302949 12.74597229 -18.18939687 10.81001487 -15.625 8.875 C-14.90376953 8.32779297 -14.18253906 7.78058594 -13.43945312 7.21679688 C-3.27363281 -0.44238281 -3.27363281 -0.44238281 0 0 Z " fill="#279089" transform="translate(165.3125,39.3125)"/>
<path d="M0 0 C4.32501113 2.0301886 8.0338138 4.8329658 11.89941406 7.61865234 C12.72699219 8.19615234 13.55457031 8.77365234 14.40722656 9.36865234 C15.19355469 9.93326172 15.97988281 10.49787109 16.79003906 11.07958984 C17.86560059 11.84601807 17.86560059 11.84601807 18.96289062 12.62792969 C20.90888128 14.49222705 21.37855089 15.58420725 21.64941406 18.24365234 C21.31941406 18.90365234 20.98941406 19.56365234 20.64941406 20.24365234 C14.53473354 19.92687926 11.07137784 16.96398489 6.46191406 13.30615234 C5.052071 12.21330028 3.64192655 11.12083687 2.23144531 10.02880859 C1.61503174 9.5429126 0.99861816 9.0570166 0.36352539 8.55639648 C-1.16125149 7.38865324 -2.7525795 6.30898997 -4.35058594 5.24365234 C-4.53808594 2.61865234 -4.53808594 2.61865234 -4.35058594 0.24365234 C-2.35058594 -0.75634766 -2.35058594 -0.75634766 0 0 Z " fill="#2C908C" transform="translate(146.3505859375,86.75634765625)"/>
<path d="M0 0 C1.00023193 0.00523682 2.00046387 0.01047363 3.03100586 0.01586914 C4.1105957 0.0190918 5.19018555 0.02231445 6.30249023 0.02563477 C8.00695312 0.03820312 8.00695312 0.03820312 9.74584961 0.05102539 C11.45611328 0.05779297 11.45611328 0.05779297 13.20092773 0.06469727 C16.02845312 0.07652792 18.85587601 0.09301129 21.68334961 0.11352539 C22.06553728 1.76967196 22.39730063 3.43809563 22.68334961 5.11352539 C21.68334961 6.11352539 21.68334961 6.11352539 19.36669922 6.22705078 C18.36646729 6.22181396 17.36623535 6.21657715 16.33569336 6.21118164 C15.25610352 6.20795898 14.17651367 6.20473633 13.06420898 6.20141602 C11.92790039 6.19303711 10.7915918 6.1846582 9.62084961 6.17602539 C8.48067383 6.17151367 7.34049805 6.16700195 6.16577148 6.16235352 C3.3382461 6.15052287 0.51082321 6.13403949 -2.31665039 6.11352539 C-2.69883806 4.45737882 -3.03060141 2.78895515 -3.31665039 1.11352539 C-2.31665039 0.11352539 -2.31665039 0.11352539 0 0 Z " fill="#358D88" transform="translate(145.316650390625,69.886474609375)"/>
<path d="M0 0 C-0.04125 0.78375 -0.0825 1.5675 -0.125 2.375 C-0.28728734 5.16116119 -0.28728734 5.16116119 2 7 C-0.35968744 9.09749995 -1.54616994 9.96905704 -4.75 10.1875 C-5.4925 10.125625 -6.235 10.06375 -7 10 C-7.33 8.35 -7.66 6.7 -8 5 C-6.8562364 4.16382818 -5.70992861 3.33113541 -4.5625 2.5 C-3.92441406 2.0359375 -3.28632813 1.571875 -2.62890625 1.09375 C-1 0 -1 0 0 0 Z " fill="#2D8F7E" transform="translate(150,49)"/>
<path d="M0 0 C0.33 0 0.66 0 1 0 C1 1.65 1 3.3 1 5 C0.38125 5.268125 -0.2375 5.53625 -0.875 5.8125 C-3.2995233 6.95556848 -3.2995233 6.95556848 -5 10 C-5.66 10 -6.32 10 -7 10 C-7 9.34 -7 8.68 -7 8 C-7.66 7.67 -8.32 7.34 -9 7 C-6.77515647 3.48708916 -4.90265724 2.33511958 -1 1 C-0.67 0.67 -0.34 0.34 0 0 Z " fill="#1E958D" transform="translate(221,16)"/>
<path d="M0 0 C2.97 1.98 2.97 1.98 6 4 C5.67 5.65 5.34 7.3 5 9 C2.03 8.505 2.03 8.505 -1 8 C-1.125 2.25 -1.125 2.25 0 0 Z " fill="#318E8A" transform="translate(162,98)"/>
<path d="M0 0 C0.66 0 1.32 0 2 0 C2 1.32 2 2.64 2 4 C3.32 4.33 4.64 4.66 6 5 C4.25 6.5625 4.25 6.5625 2 8 C-0.25 7.6875 -0.25 7.6875 -2 7 C-1.34 4.69 -0.68 2.38 0 0 Z " fill="#229482" transform="translate(151,47)"/>
<path d="M0 0 C2.475 0.495 2.475 0.495 5 1 C5.33 2.32 5.66 3.64 6 5 C3.83125748 4.49396008 2.00032373 4.00016187 0 3 C0 2.01 0 1.02 0 0 Z " fill="#1E9692" transform="translate(154,98)"/>
</svg>
